<mxfile host="65bd71144e">
    <diagram id="C5RBs43oDa-KdzZeNtuy" name="Page-1">
        <mxGraphModel dx="1432" dy="597" grid="1" gridSize="10" guides="1" tooltips="1" connect="1" arrows="1" fold="1" page="0" pageScale="1" pageWidth="827" pageHeight="1169" math="0" shadow="0">
            <root>
                <mxCell id="WIyWlLk6GJQsqaUBKTNV-0"/>
                <mxCell id="WIyWlLk6GJQsqaUBKTNV-1" parent="WIyWlLk6GJQsqaUBKTNV-0"/>
                <mxCell id="18" value="" style="rounded=0;whiteSpace=wrap;html=1;strokeColor=none;fillColor=#94A3B8;opacity=10;" vertex="1" parent="WIyWlLk6GJQsqaUBKTNV-1">
                    <mxGeometry x="-10" y="190" width="860" height="60" as="geometry"/>
                </mxCell>
                <mxCell id="19" value="" style="rounded=0;whiteSpace=wrap;html=1;strokeColor=none;fillColor=#94A3B8;opacity=10;" vertex="1" parent="WIyWlLk6GJQsqaUBKTNV-1">
                    <mxGeometry x="-10" y="730" width="860" height="60" as="geometry"/>
                </mxCell>
                <mxCell id="16" value="" style="endArrow=none;html=1;rounded=0;dashed=1;strokeWidth=2;endSize=6;startSize=6;jumpSize=6;strokeColor=#60a5fa;fontFamily=Roboto Mono;fontSource=https%3A%2F%2Ffonts.googleapis.com%2Fcss%3Ffamily%3DRoboto%2BMono;endFill=0;startArrow=oval;startFill=1;" parent="WIyWlLk6GJQsqaUBKTNV-1" edge="1">
                    <mxGeometry width="50" height="50" relative="1" as="geometry">
                        <mxPoint y="760" as="sourcePoint"/>
                        <mxPoint x="100" y="760" as="targetPoint"/>
                    </mxGeometry>
                </mxCell>
                <mxCell id="MzYAZwuP3uAeil5Zmus0-0" value="navigate()" style="rounded=1;whiteSpace=wrap;html=1;fontSize=12;glass=0;strokeWidth=1;shadow=0;fillColor=#65adf1;fontColor=#ffffff;strokeColor=none;fontFamily=Roboto Mono;fontSource=https%3A%2F%2Ffonts.googleapis.com%2Fcss%3Ffamily%3DRoboto%2BMono;" parent="WIyWlLk6GJQsqaUBKTNV-1" vertex="1">
                    <mxGeometry x="40" y="40" width="120" height="40" as="geometry"/>
                </mxCell>
                <mxCell id="MzYAZwuP3uAeil5Zmus0-5" value="" style="edgeStyle=orthogonalEdgeStyle;rounded=0;orthogonalLoop=1;jettySize=auto;html=1;entryX=0.5;entryY=0;entryDx=0;entryDy=0;exitX=1;exitY=0.5;exitDx=0;exitDy=0;dashed=1;strokeWidth=2;endSize=2;startSize=2;jumpSize=6;strokeColor=#94a3b8;fontFamily=Roboto Mono;fontSource=https%3A%2F%2Ffonts.googleapis.com%2Fcss%3Ffamily%3DRoboto%2BMono;endArrow=block;endFill=1;" parent="WIyWlLk6GJQsqaUBKTNV-1" source="MzYAZwuP3uAeil5Zmus0-2" target="MzYAZwuP3uAeil5Zmus0-4" edge="1">
                    <mxGeometry relative="1" as="geometry">
                        <mxPoint x="189.74" y="280.0000000000001" as="sourcePoint"/>
                        <mxPoint x="249.74" y="340" as="targetPoint"/>
                    </mxGeometry>
                </mxCell>
                <mxCell id="MzYAZwuP3uAeil5Zmus0-11" value="" style="edgeStyle=orthogonalEdgeStyle;rounded=0;orthogonalLoop=1;jettySize=auto;html=1;strokeWidth=3;endSize=4;endArrow=block;endFill=1;strokeColor=#94a3b8;fontFamily=Roboto Mono;fontSource=https%3A%2F%2Ffonts.googleapis.com%2Fcss%3Ffamily%3DRoboto%2BMono;" parent="WIyWlLk6GJQsqaUBKTNV-1" source="MzYAZwuP3uAeil5Zmus0-2" target="MzYAZwuP3uAeil5Zmus0-10" edge="1">
                    <mxGeometry relative="1" as="geometry"/>
                </mxCell>
                <mxCell id="MzYAZwuP3uAeil5Zmus0-2" value="&lt;div style=&quot;font-size: 9px;&quot;&gt;clearHistory?&lt;/div&gt;" style="rhombus;whiteSpace=wrap;html=1;rounded=1;glass=0;strokeWidth=1;shadow=0;fillColor=#a855f7;fontColor=#ffffff;strokeColor=none;fontFamily=Roboto Mono;fontSource=https%3A%2F%2Ffonts.googleapis.com%2Fcss%3Ffamily%3DRoboto%2BMono;fontSize=9;" parent="WIyWlLk6GJQsqaUBKTNV-1" vertex="1">
                    <mxGeometry x="40" y="240" width="120" height="80" as="geometry"/>
                </mxCell>
                <mxCell id="MzYAZwuP3uAeil5Zmus0-4" value="clear backstack" style="whiteSpace=wrap;html=1;rounded=1;glass=0;strokeWidth=1;shadow=0;fillColor=#4ade80;strokeColor=none;fontColor=#FFFFFF;fontFamily=Roboto Mono;fontSource=https%3A%2F%2Ffonts.googleapis.com%2Fcss%3Ffamily%3DRoboto%2BMono;" parent="WIyWlLk6GJQsqaUBKTNV-1" vertex="1">
                    <mxGeometry x="130" y="320" width="140" height="40" as="geometry"/>
                </mxCell>
                <mxCell id="MzYAZwuP3uAeil5Zmus0-10" value="backstackVisible?" style="rhombus;whiteSpace=wrap;html=1;rounded=1;glass=0;strokeWidth=1;shadow=0;fillColor=#a855f7;fontColor=#ffffff;strokeColor=none;fontFamily=Roboto Mono;fontSource=https%3A%2F%2Ffonts.googleapis.com%2Fcss%3Ffamily%3DRoboto%2BMono;fontSize=9;" parent="WIyWlLk6GJQsqaUBKTNV-1" vertex="1">
                    <mxGeometry x="40" y="440" width="120" height="80" as="geometry"/>
                </mxCell>
                <mxCell id="MzYAZwuP3uAeil5Zmus0-15" value="" style="endArrow=none;html=1;rounded=0;exitX=0.5;exitY=1;exitDx=0;exitDy=0;dashed=1;strokeWidth=2;endSize=2;startSize=2;jumpSize=6;strokeColor=#94a3b8;fontFamily=Roboto Mono;fontSource=https%3A%2F%2Ffonts.googleapis.com%2Fcss%3Ffamily%3DRoboto%2BMono;endFill=0;startArrow=block;startFill=1;entryX=0.5;entryY=1;entryDx=0;entryDy=0;" parent="WIyWlLk6GJQsqaUBKTNV-1" target="MzYAZwuP3uAeil5Zmus0-4" edge="1">
                    <mxGeometry width="50" height="50" relative="1" as="geometry">
                        <mxPoint x="100" y="420" as="sourcePoint"/>
                        <mxPoint x="170" y="450" as="targetPoint"/>
                        <Array as="points">
                            <mxPoint x="200" y="420"/>
                        </Array>
                    </mxGeometry>
                </mxCell>
                <mxCell id="MzYAZwuP3uAeil5Zmus0-16" value="" style="endArrow=block;html=1;rounded=0;dashed=1;strokeWidth=2;endSize=2;startSize=2;jumpSize=6;strokeColor=#94a3b8;fontFamily=Roboto Mono;fontSource=https%3A%2F%2Ffonts.googleapis.com%2Fcss%3Ffamily%3DRoboto%2BMono;endFill=1;" parent="WIyWlLk6GJQsqaUBKTNV-1" target="MzYAZwuP3uAeil5Zmus0-17" edge="1">
                    <mxGeometry width="50" height="50" relative="1" as="geometry">
                        <mxPoint x="200" y="390" as="sourcePoint"/>
                        <mxPoint x="280" y="390" as="targetPoint"/>
                    </mxGeometry>
                </mxCell>
                <mxCell id="MzYAZwuP3uAeil5Zmus0-20" value="push to backstack" style="whiteSpace=wrap;html=1;rounded=1;glass=0;strokeWidth=1;shadow=0;fillColor=#4ade80;strokeColor=none;fontColor=#FFFFFF;fontFamily=Roboto Mono;fontSource=https%3A%2F%2Ffonts.googleapis.com%2Fcss%3Ffamily%3DRoboto%2BMono;" parent="WIyWlLk6GJQsqaUBKTNV-1" vertex="1">
                    <mxGeometry x="130" y="520" width="140" height="40" as="geometry"/>
                </mxCell>
                <mxCell id="MzYAZwuP3uAeil5Zmus0-21" value="" style="edgeStyle=orthogonalEdgeStyle;rounded=0;orthogonalLoop=1;jettySize=auto;html=1;entryX=0.5;entryY=0;entryDx=0;entryDy=0;exitX=1;exitY=0.5;exitDx=0;exitDy=0;dashed=1;strokeWidth=2;endSize=2;startSize=2;jumpSize=6;strokeColor=#94a3b8;fontFamily=Roboto Mono;fontSource=https%3A%2F%2Ffonts.googleapis.com%2Fcss%3Ffamily%3DRoboto%2BMono;endArrow=block;endFill=1;" parent="WIyWlLk6GJQsqaUBKTNV-1" edge="1">
                    <mxGeometry relative="1" as="geometry">
                        <mxPoint x="160" y="480" as="sourcePoint"/>
                        <mxPoint x="200" y="520" as="targetPoint"/>
                    </mxGeometry>
                </mxCell>
                <mxCell id="MzYAZwuP3uAeil5Zmus0-23" value="" style="edgeStyle=orthogonalEdgeStyle;rounded=0;orthogonalLoop=1;jettySize=auto;html=1;strokeWidth=3;endSize=4;endArrow=block;endFill=1;strokeColor=#94a3b8;fontFamily=Roboto Mono;fontSource=https%3A%2F%2Ffonts.googleapis.com%2Fcss%3Ffamily%3DRoboto%2BMono;" parent="WIyWlLk6GJQsqaUBKTNV-1" target="MzYAZwuP3uAeil5Zmus0-47" edge="1">
                    <mxGeometry relative="1" as="geometry">
                        <mxPoint x="99.75999999999999" y="520" as="sourcePoint"/>
                        <mxPoint x="100" y="720" as="targetPoint"/>
                    </mxGeometry>
                </mxCell>
                <mxCell id="MzYAZwuP3uAeil5Zmus0-25" value="" style="endArrow=none;html=1;rounded=0;dashed=1;strokeWidth=2;endSize=2;startSize=2;jumpSize=6;strokeColor=#94a3b8;fontFamily=Roboto Mono;fontSource=https%3A%2F%2Ffonts.googleapis.com%2Fcss%3Ffamily%3DRoboto%2BMono;endFill=0;startArrow=block;startFill=1;" parent="WIyWlLk6GJQsqaUBKTNV-1" edge="1">
                    <mxGeometry width="50" height="50" relative="1" as="geometry">
                        <mxPoint x="100" y="600" as="sourcePoint"/>
                        <mxPoint x="200" y="560" as="targetPoint"/>
                        <Array as="points">
                            <mxPoint x="200" y="600"/>
                        </Array>
                    </mxGeometry>
                </mxCell>
                <mxCell id="MzYAZwuP3uAeil5Zmus0-37" value="" style="endArrow=block;html=1;rounded=0;dashed=1;entryX=0;entryY=0.5;entryDx=0;entryDy=0;strokeColor=#fb7185;strokeWidth=2;endSize=2;startSize=2;jumpSize=6;fontFamily=Roboto Mono;fontSource=https%3A%2F%2Ffonts.googleapis.com%2Fcss%3Ffamily%3DRoboto%2BMono;endFill=1;" parent="WIyWlLk6GJQsqaUBKTNV-1" target="MzYAZwuP3uAeil5Zmus0-36" edge="1">
                    <mxGeometry width="50" height="50" relative="1" as="geometry">
                        <mxPoint x="100" y="99.66" as="sourcePoint"/>
                        <mxPoint x="270" y="100" as="targetPoint"/>
                    </mxGeometry>
                </mxCell>
                <mxCell id="MzYAZwuP3uAeil5Zmus0-39" value="" style="endArrow=block;html=1;rounded=0;dashed=1;entryX=0;entryY=0.5;entryDx=0;entryDy=0;strokeWidth=2;endSize=2;startSize=2;jumpSize=6;strokeColor=#94a3b8;fontFamily=Roboto Mono;fontSource=https%3A%2F%2Ffonts.googleapis.com%2Fcss%3Ffamily%3DRoboto%2BMono;endFill=1;" parent="WIyWlLk6GJQsqaUBKTNV-1" edge="1">
                    <mxGeometry width="50" height="50" relative="1" as="geometry">
                        <mxPoint x="100" y="159.66" as="sourcePoint"/>
                        <mxPoint x="280" y="160" as="targetPoint"/>
                    </mxGeometry>
                </mxCell>
                <mxCell id="MzYAZwuP3uAeil5Zmus0-41" value="" style="endArrow=block;html=1;rounded=0;dashed=1;entryX=0;entryY=0.5;entryDx=0;entryDy=0;strokeColor=#fb7185;strokeWidth=2;endSize=2;startSize=2;jumpSize=6;fontFamily=Roboto Mono;fontSource=https%3A%2F%2Ffonts.googleapis.com%2Fcss%3Ffamily%3DRoboto%2BMono;endFill=1;" parent="WIyWlLk6GJQsqaUBKTNV-1" edge="1">
                    <mxGeometry width="50" height="50" relative="1" as="geometry">
                        <mxPoint x="100" y="220" as="sourcePoint"/>
                        <mxPoint x="280" y="219.94" as="targetPoint"/>
                    </mxGeometry>
                </mxCell>
                <mxCell id="MzYAZwuP3uAeil5Zmus0-43" value="" style="endArrow=block;html=1;rounded=0;dashed=1;entryX=0;entryY=0.5;entryDx=0;entryDy=0;strokeWidth=2;endSize=2;startSize=2;jumpSize=6;strokeColor=#94a3b8;fontFamily=Roboto Mono;fontSource=https%3A%2F%2Ffonts.googleapis.com%2Fcss%3Ffamily%3DRoboto%2BMono;endFill=1;" parent="WIyWlLk6GJQsqaUBKTNV-1" edge="1">
                    <mxGeometry width="50" height="50" relative="1" as="geometry">
                        <mxPoint x="100" y="639.6" as="sourcePoint"/>
                        <mxPoint x="280" y="639.94" as="targetPoint"/>
                    </mxGeometry>
                </mxCell>
                <mxCell id="MzYAZwuP3uAeil5Zmus0-45" value="" style="endArrow=block;html=1;rounded=0;dashed=1;entryX=0;entryY=0.5;entryDx=0;entryDy=0;exitX=1;exitY=0.5;exitDx=0;exitDy=0;strokeColor=#fb7185;strokeWidth=2;endSize=2;startSize=2;jumpSize=6;fontFamily=Roboto Mono;fontSource=https%3A%2F%2Ffonts.googleapis.com%2Fcss%3Ffamily%3DRoboto%2BMono;endFill=1;" parent="WIyWlLk6GJQsqaUBKTNV-1" source="MzYAZwuP3uAeil5Zmus0-47" target="MzYAZwuP3uAeil5Zmus0-35" edge="1">
                    <mxGeometry width="50" height="50" relative="1" as="geometry">
                        <mxPoint x="100" y="739.6" as="sourcePoint"/>
                        <mxPoint x="280" y="739.94" as="targetPoint"/>
                    </mxGeometry>
                </mxCell>
                <mxCell id="MzYAZwuP3uAeil5Zmus0-47" value="&lt;div&gt;new&lt;/div&gt;&lt;div&gt;Page&lt;/div&gt;" style="ellipse;whiteSpace=wrap;html=1;aspect=fixed;fillColor=#fb7185;strokeColor=none;fontColor=#ffffff;fontFamily=Roboto Mono;fontSource=https%3A%2F%2Ffonts.googleapis.com%2Fcss%3Ffamily%3DRoboto%2BMono;" parent="WIyWlLk6GJQsqaUBKTNV-1" vertex="1">
                    <mxGeometry x="60" y="720" width="80" height="80" as="geometry"/>
                </mxCell>
                <mxCell id="MzYAZwuP3uAeil5Zmus0-48" value="goBack()" style="rounded=1;whiteSpace=wrap;html=1;fontSize=12;glass=0;strokeWidth=1;shadow=0;fillColor=#65adf1;fontColor=#ffffff;strokeColor=none;fontFamily=Roboto Mono;fontSource=https%3A%2F%2Ffonts.googleapis.com%2Fcss%3Ffamily%3DRoboto%2BMono;" parent="WIyWlLk6GJQsqaUBKTNV-1" vertex="1">
                    <mxGeometry x="520" y="40" width="120" height="40" as="geometry"/>
                </mxCell>
                <mxCell id="MzYAZwuP3uAeil5Zmus0-52" value="" style="endArrow=none;html=1;rounded=0;dashed=1;entryX=1;entryY=0.5;entryDx=0;entryDy=0;strokeWidth=2;endSize=2;startSize=2;jumpSize=6;strokeColor=#94a3b8;fontFamily=Roboto Mono;fontSource=https%3A%2F%2Ffonts.googleapis.com%2Fcss%3Ffamily%3DRoboto%2BMono;endFill=0;startArrow=block;startFill=1;exitX=1;exitY=0.5;exitDx=0;exitDy=0;" parent="WIyWlLk6GJQsqaUBKTNV-1" source="MzYAZwuP3uAeil5Zmus0-32" edge="1">
                    <mxGeometry width="50" height="50" relative="1" as="geometry">
                        <mxPoint x="480" y="240" as="sourcePoint"/>
                        <mxPoint x="580" y="160" as="targetPoint"/>
                    </mxGeometry>
                </mxCell>
                <mxCell id="MzYAZwuP3uAeil5Zmus0-54" value="" style="endArrow=none;html=1;rounded=0;dashed=1;strokeColor=#fb7185;strokeWidth=2;endSize=2;startSize=2;jumpSize=6;fontFamily=Roboto Mono;fontSource=https%3A%2F%2Ffonts.googleapis.com%2Fcss%3Ffamily%3DRoboto%2BMono;endFill=0;startArrow=block;startFill=1;" parent="WIyWlLk6GJQsqaUBKTNV-1" edge="1">
                    <mxGeometry width="50" height="50" relative="1" as="geometry">
                        <mxPoint x="400" y="220" as="sourcePoint"/>
                        <mxPoint x="580" y="220" as="targetPoint"/>
                    </mxGeometry>
                </mxCell>
                <mxCell id="MzYAZwuP3uAeil5Zmus0-57" value="" style="endArrow=none;html=1;rounded=0;dashed=1;entryX=1;entryY=0.5;entryDx=0;entryDy=0;strokeWidth=2;endSize=2;startSize=2;jumpSize=6;strokeColor=#94a3b8;fontFamily=Roboto Mono;fontSource=https%3A%2F%2Ffonts.googleapis.com%2Fcss%3Ffamily%3DRoboto%2BMono;endFill=0;startArrow=block;startFill=1;" parent="WIyWlLk6GJQsqaUBKTNV-1" edge="1">
                    <mxGeometry width="50" height="50" relative="1" as="geometry">
                        <mxPoint x="400" y="279.6" as="sourcePoint"/>
                        <mxPoint x="580" y="279.6" as="targetPoint"/>
                    </mxGeometry>
                </mxCell>
                <mxCell id="MzYAZwuP3uAeil5Zmus0-59" value="" style="endArrow=none;html=1;rounded=0;dashed=1;entryX=1;entryY=0.5;entryDx=0;entryDy=0;strokeWidth=2;endSize=2;startSize=2;jumpSize=6;strokeColor=#94a3b8;fontFamily=Roboto Mono;fontSource=https%3A%2F%2Ffonts.googleapis.com%2Fcss%3Ffamily%3DRoboto%2BMono;endFill=0;startArrow=block;startFill=1;" parent="WIyWlLk6GJQsqaUBKTNV-1" edge="1">
                    <mxGeometry width="50" height="50" relative="1" as="geometry">
                        <mxPoint x="400" y="389.6" as="sourcePoint"/>
                        <mxPoint x="580" y="389.6" as="targetPoint"/>
                    </mxGeometry>
                </mxCell>
                <mxCell id="MzYAZwuP3uAeil5Zmus0-61" value="" style="endArrow=none;html=1;rounded=0;dashed=1;entryX=0;entryY=0.5;entryDx=0;entryDy=0;exitX=1;exitY=0.5;exitDx=0;exitDy=0;strokeColor=#fb7185;strokeWidth=2;endSize=2;startSize=2;jumpSize=6;fontFamily=Roboto Mono;fontSource=https%3A%2F%2Ffonts.googleapis.com%2Fcss%3Ffamily%3DRoboto%2BMono;endFill=0;startArrow=block;startFill=1;" parent="WIyWlLk6GJQsqaUBKTNV-1" source="MzYAZwuP3uAeil5Zmus0-35" target="MzYAZwuP3uAeil5Zmus0-50" edge="1">
                    <mxGeometry width="50" height="50" relative="1" as="geometry">
                        <mxPoint x="410" y="740" as="sourcePoint"/>
                        <mxPoint x="540" y="739.6" as="targetPoint"/>
                    </mxGeometry>
                </mxCell>
                <mxCell id="MzYAZwuP3uAeil5Zmus0-63" value="isBackNavigation: true" style="text;html=1;align=left;verticalAlign=middle;resizable=0;points=[];autosize=1;strokeColor=none;fillColor=none;fontColor=#94a3b8;fontFamily=Roboto Mono;fontSource=https%3A%2F%2Ffonts.googleapis.com%2Fcss%3Ffamily%3DRoboto%2BMono;fontSize=9;" parent="WIyWlLk6GJQsqaUBKTNV-1" vertex="1">
                    <mxGeometry x="410" y="760" width="140" height="20" as="geometry"/>
                </mxCell>
                <mxCell id="MzYAZwuP3uAeil5Zmus0-65" value="isBackNavigation: true" style="text;html=1;align=left;verticalAlign=middle;resizable=0;points=[];autosize=1;strokeColor=none;fillColor=none;fontColor=#94a3b8;fontFamily=Roboto Mono;fontSource=https%3A%2F%2Ffonts.googleapis.com%2Fcss%3Ffamily%3DRoboto%2BMono;fontSize=9;" parent="WIyWlLk6GJQsqaUBKTNV-1" vertex="1">
                    <mxGeometry x="410" y="280" width="140" height="20" as="geometry"/>
                </mxCell>
                <mxCell id="MzYAZwuP3uAeil5Zmus0-67" value="isBackNavigation: true" style="text;html=1;align=left;verticalAlign=middle;resizable=0;points=[];autosize=1;strokeColor=none;fillColor=none;fontColor=#94a3b8;fontFamily=Roboto Mono;fontSource=https%3A%2F%2Ffonts.googleapis.com%2Fcss%3Ffamily%3DRoboto%2BMono;fontSize=9;" parent="WIyWlLk6GJQsqaUBKTNV-1" vertex="1">
                    <mxGeometry x="410" y="220" width="140" height="20" as="geometry"/>
                </mxCell>
                <mxCell id="MzYAZwuP3uAeil5Zmus0-68" value="isBackNavigation: true" style="text;align=left;verticalAlign=middle;resizable=0;points=[];autosize=1;strokeColor=none;fillColor=none;fontColor=#94a3b8;fontFamily=Roboto Mono;fontSource=https%3A%2F%2Ffonts.googleapis.com%2Fcss%3Ffamily%3DRoboto%2BMono;fontSize=9;html=1;" parent="WIyWlLk6GJQsqaUBKTNV-1" vertex="1">
                    <mxGeometry x="410" y="160" width="140" height="20" as="geometry"/>
                </mxCell>
                <mxCell id="MzYAZwuP3uAeil5Zmus0-74" value="new Page" style="text;html=1;strokeColor=none;fillColor=none;align=right;verticalAlign=middle;whiteSpace=wrap;rounded=0;fontColor=#94a3b8;fontFamily=Roboto Mono;fontSource=https%3A%2F%2Ffonts.googleapis.com%2Fcss%3Ffamily%3DRoboto%2BMono;" parent="WIyWlLk6GJQsqaUBKTNV-1" vertex="1">
                    <mxGeometry x="160" y="70" width="110" height="30" as="geometry"/>
                </mxCell>
                <mxCell id="MzYAZwuP3uAeil5Zmus0-75" value="new Page" style="text;html=1;strokeColor=none;fillColor=none;align=right;verticalAlign=middle;whiteSpace=wrap;rounded=0;fontColor=#94a3b8;fontFamily=Roboto Mono;fontSource=https%3A%2F%2Ffonts.googleapis.com%2Fcss%3Ffamily%3DRoboto%2BMono;" parent="WIyWlLk6GJQsqaUBKTNV-1" vertex="1">
                    <mxGeometry x="160" y="190" width="110" height="30" as="geometry"/>
                </mxCell>
                <mxCell id="MzYAZwuP3uAeil5Zmus0-76" value="new Page" style="text;html=1;strokeColor=none;fillColor=none;align=right;verticalAlign=middle;whiteSpace=wrap;rounded=0;fontColor=#94a3b8;fontFamily=Roboto Mono;fontSource=https%3A%2F%2Ffonts.googleapis.com%2Fcss%3Ffamily%3DRoboto%2BMono;" parent="WIyWlLk6GJQsqaUBKTNV-1" vertex="1">
                    <mxGeometry x="160" y="730" width="110" height="30" as="geometry"/>
                </mxCell>
                <mxCell id="MzYAZwuP3uAeil5Zmus0-77" value="current Page" style="text;html=1;strokeColor=none;fillColor=none;align=right;verticalAlign=middle;whiteSpace=wrap;rounded=0;fontColor=#94a3b8;fontFamily=Roboto Mono;fontSource=https%3A%2F%2Ffonts.googleapis.com%2Fcss%3Ffamily%3DRoboto%2BMono;" parent="WIyWlLk6GJQsqaUBKTNV-1" vertex="1">
                    <mxGeometry x="160" y="130" width="110" height="30" as="geometry"/>
                </mxCell>
                <mxCell id="MzYAZwuP3uAeil5Zmus0-78" value="current Page" style="text;html=1;strokeColor=none;fillColor=none;align=right;verticalAlign=middle;whiteSpace=wrap;rounded=0;fontColor=#94a3b8;fontFamily=Roboto Mono;fontSource=https%3A%2F%2Ffonts.googleapis.com%2Fcss%3Ffamily%3DRoboto%2BMono;" parent="WIyWlLk6GJQsqaUBKTNV-1" vertex="1">
                    <mxGeometry x="160" y="610" width="110" height="30" as="geometry"/>
                </mxCell>
                <mxCell id="MzYAZwuP3uAeil5Zmus0-79" value="current Page" style="text;html=1;strokeColor=none;fillColor=none;align=right;verticalAlign=middle;whiteSpace=wrap;rounded=0;fontColor=#94a3b8;fontFamily=Roboto Mono;fontSource=https%3A%2F%2Ffonts.googleapis.com%2Fcss%3Ffamily%3DRoboto%2BMono;" parent="WIyWlLk6GJQsqaUBKTNV-1" vertex="1">
                    <mxGeometry x="160" y="670" width="110" height="30" as="geometry"/>
                </mxCell>
                <mxCell id="MzYAZwuP3uAeil5Zmus0-80" value="previous Page" style="text;html=1;strokeColor=none;fillColor=none;align=left;verticalAlign=middle;whiteSpace=wrap;rounded=0;fontColor=#94a3b8;fontFamily=Roboto Mono;fontSource=https%3A%2F%2Ffonts.googleapis.com%2Fcss%3Ffamily%3DRoboto%2BMono;" parent="WIyWlLk6GJQsqaUBKTNV-1" vertex="1">
                    <mxGeometry x="410" y="190" width="110" height="30" as="geometry"/>
                </mxCell>
                <mxCell id="MzYAZwuP3uAeil5Zmus0-81" value="previous Page" style="text;html=1;strokeColor=none;fillColor=none;align=left;verticalAlign=middle;whiteSpace=wrap;rounded=0;fontColor=#94a3b8;fontFamily=Roboto Mono;fontSource=https%3A%2F%2Ffonts.googleapis.com%2Fcss%3Ffamily%3DRoboto%2BMono;" parent="WIyWlLk6GJQsqaUBKTNV-1" vertex="1">
                    <mxGeometry x="410" y="730" width="110" height="30" as="geometry"/>
                </mxCell>
                <mxCell id="MzYAZwuP3uAeil5Zmus0-82" value="current Page" style="text;html=1;strokeColor=none;fillColor=none;align=left;verticalAlign=middle;whiteSpace=wrap;rounded=0;fontColor=#94a3b8;fontFamily=Roboto Mono;fontSource=https%3A%2F%2Ffonts.googleapis.com%2Fcss%3Ffamily%3DRoboto%2BMono;" parent="WIyWlLk6GJQsqaUBKTNV-1" vertex="1">
                    <mxGeometry x="410" y="360" width="110" height="30" as="geometry"/>
                </mxCell>
                <mxCell id="MzYAZwuP3uAeil5Zmus0-83" value="current Page" style="text;html=1;strokeColor=none;fillColor=none;align=left;verticalAlign=middle;whiteSpace=wrap;rounded=0;fontColor=#94a3b8;fontFamily=Roboto Mono;fontSource=https%3A%2F%2Ffonts.googleapis.com%2Fcss%3Ffamily%3DRoboto%2BMono;" parent="WIyWlLk6GJQsqaUBKTNV-1" vertex="1">
                    <mxGeometry x="410" y="130" width="110" height="30" as="geometry"/>
                </mxCell>
                <mxCell id="MzYAZwuP3uAeil5Zmus0-84" value="current Page" style="text;html=1;strokeColor=none;fillColor=none;align=left;verticalAlign=middle;whiteSpace=wrap;rounded=0;fontColor=#94a3b8;fontFamily=Roboto Mono;fontSource=https%3A%2F%2Ffonts.googleapis.com%2Fcss%3Ffamily%3DRoboto%2BMono;" parent="WIyWlLk6GJQsqaUBKTNV-1" vertex="1">
                    <mxGeometry x="410" y="250" width="110" height="30" as="geometry"/>
                </mxCell>
                <mxCell id="MzYAZwuP3uAeil5Zmus0-85" value="each Page" style="text;html=1;strokeColor=none;fillColor=none;align=right;verticalAlign=middle;whiteSpace=wrap;rounded=0;fontColor=#94a3b8;fontFamily=Roboto Mono;fontSource=https%3A%2F%2Ffonts.googleapis.com%2Fcss%3Ffamily%3DRoboto%2BMono;" parent="WIyWlLk6GJQsqaUBKTNV-1" vertex="1">
                    <mxGeometry x="200" y="360" width="70" height="30" as="geometry"/>
                </mxCell>
                <mxCell id="0hTGC6HZLtdBihr4BLEF-1" value="YES" style="text;html=1;strokeColor=none;fillColor=none;align=left;verticalAlign=middle;whiteSpace=wrap;rounded=0;fontColor=#94a3b8;fontFamily=Roboto Mono;fontSource=https%3A%2F%2Ffonts.googleapis.com%2Fcss%3Ffamily%3DRoboto%2BMono;" parent="WIyWlLk6GJQsqaUBKTNV-1" vertex="1">
                    <mxGeometry x="210" y="280" width="40" height="30" as="geometry"/>
                </mxCell>
                <mxCell id="0hTGC6HZLtdBihr4BLEF-2" value="YES" style="text;html=1;strokeColor=none;fillColor=none;align=left;verticalAlign=middle;whiteSpace=wrap;rounded=0;fontColor=#94a3b8;fontFamily=Roboto Mono;fontSource=https%3A%2F%2Ffonts.googleapis.com%2Fcss%3Ffamily%3DRoboto%2BMono;" parent="WIyWlLk6GJQsqaUBKTNV-1" vertex="1">
                    <mxGeometry x="210" y="480" width="40" height="30" as="geometry"/>
                </mxCell>
                <mxCell id="0hTGC6HZLtdBihr4BLEF-3" value="NO" style="text;html=1;strokeColor=none;fillColor=none;align=right;verticalAlign=middle;whiteSpace=wrap;rounded=0;fontColor=#94a3b8;fontFamily=Roboto Mono;fontSource=https%3A%2F%2Ffonts.googleapis.com%2Fcss%3Ffamily%3DRoboto%2BMono;" parent="WIyWlLk6GJQsqaUBKTNV-1" vertex="1">
                    <mxGeometry x="50" y="320" width="40" height="30" as="geometry"/>
                </mxCell>
                <mxCell id="0hTGC6HZLtdBihr4BLEF-4" value="NO" style="text;html=1;strokeColor=none;fillColor=none;align=right;verticalAlign=middle;whiteSpace=wrap;rounded=0;fontColor=#94a3b8;fontFamily=Roboto Mono;fontSource=https%3A%2F%2Ffonts.googleapis.com%2Fcss%3Ffamily%3DRoboto%2BMono;" parent="WIyWlLk6GJQsqaUBKTNV-1" vertex="1">
                    <mxGeometry x="50" y="520" width="40" height="30" as="geometry"/>
                </mxCell>
                <mxCell id="0hTGC6HZLtdBihr4BLEF-8" value="" style="endArrow=block;html=1;rounded=0;dashed=1;entryX=0;entryY=0.5;entryDx=0;entryDy=0;strokeWidth=2;endSize=2;startSize=2;jumpSize=6;strokeColor=#94a3b8;fontFamily=Roboto Mono;fontSource=https%3A%2F%2Ffonts.googleapis.com%2Fcss%3Ffamily%3DRoboto%2BMono;endFill=1;" parent="WIyWlLk6GJQsqaUBKTNV-1" edge="1">
                    <mxGeometry width="50" height="50" relative="1" as="geometry">
                        <mxPoint x="100" y="700" as="sourcePoint"/>
                        <mxPoint x="280" y="700.34" as="targetPoint"/>
                    </mxGeometry>
                </mxCell>
                <mxCell id="0" value="" style="endArrow=none;dashed=1;html=1;fontSize=9;strokeColor=#94A3B8;strokeWidth=2;dashPattern=1 2;" parent="WIyWlLk6GJQsqaUBKTNV-1" edge="1">
                    <mxGeometry width="50" height="50" relative="1" as="geometry">
                        <mxPoint x="680" y="820" as="sourcePoint"/>
                        <mxPoint x="680" y="20" as="targetPoint"/>
                    </mxGeometry>
                </mxCell>
                <mxCell id="1" value="navigatingTo" style="whiteSpace=wrap;html=1;rounded=1;glass=0;strokeWidth=1;shadow=0;fillColor=none;strokeColor=#60a5fa;fontColor=#60a5fa;fontFamily=Roboto Mono;fontSource=https%3A%2F%2Ffonts.googleapis.com%2Fcss%3Ffamily%3DRoboto%2BMono;" parent="WIyWlLk6GJQsqaUBKTNV-1" vertex="1">
                    <mxGeometry x="720" y="200" width="120" height="40" as="geometry"/>
                </mxCell>
                <mxCell id="2" value="navigatedTo" style="whiteSpace=wrap;html=1;rounded=1;glass=0;strokeWidth=1;shadow=0;fillColor=none;strokeColor=#60a5fa;fontColor=#60a5fa;fontFamily=Roboto Mono;fontSource=https%3A%2F%2Ffonts.googleapis.com%2Fcss%3Ffamily%3DRoboto%2BMono;" parent="WIyWlLk6GJQsqaUBKTNV-1" vertex="1">
                    <mxGeometry x="720" y="740" width="120" height="40" as="geometry"/>
                </mxCell>
                <mxCell id="3" value="Frame Events" style="text;html=1;strokeColor=none;fillColor=none;align=left;verticalAlign=middle;whiteSpace=wrap;rounded=0;fontColor=#94a3b8;fontFamily=Roboto Mono;fontSource=https%3A%2F%2Ffonts.googleapis.com%2Fcss%3Ffamily%3DRoboto%2BMono;fontSize=16;" parent="WIyWlLk6GJQsqaUBKTNV-1" vertex="1">
                    <mxGeometry x="720" y="45" width="120" height="30" as="geometry"/>
                </mxCell>
                <mxCell id="11" value="These events are also emitted on the Frame." style="text;html=1;strokeColor=none;fillColor=none;align=left;verticalAlign=middle;whiteSpace=wrap;rounded=0;fontColor=#94a3b8;fontFamily=Roboto Mono;fontSource=https%3A%2F%2Ffonts.googleapis.com%2Fcss%3Ffamily%3DRoboto%2BMono;fontSize=10;" parent="WIyWlLk6GJQsqaUBKTNV-1" vertex="1">
                    <mxGeometry x="720" y="80" width="100" height="40" as="geometry"/>
                </mxCell>
                <mxCell id="12" value="" style="endArrow=block;html=1;rounded=0;dashed=1;strokeWidth=2;endSize=2;startSize=2;jumpSize=6;strokeColor=#60a5fa;fontFamily=Roboto Mono;fontSource=https%3A%2F%2Ffonts.googleapis.com%2Fcss%3Ffamily%3DRoboto%2BMono;endFill=1;entryX=0;entryY=0.5;entryDx=0;entryDy=0;" parent="WIyWlLk6GJQsqaUBKTNV-1" target="1" edge="1">
                    <mxGeometry width="50" height="50" relative="1" as="geometry">
                        <mxPoint x="580" y="220" as="sourcePoint"/>
                        <mxPoint x="710" y="220" as="targetPoint"/>
                    </mxGeometry>
                </mxCell>
                <mxCell id="13" value="" style="endArrow=block;html=1;rounded=0;dashed=1;strokeWidth=2;endSize=2;startSize=2;jumpSize=6;strokeColor=#60a5fa;fontFamily=Roboto Mono;fontSource=https%3A%2F%2Ffonts.googleapis.com%2Fcss%3Ffamily%3DRoboto%2BMono;endFill=1;exitX=1;exitY=0.5;exitDx=0;exitDy=0;entryX=0;entryY=0.5;entryDx=0;entryDy=0;" parent="WIyWlLk6GJQsqaUBKTNV-1" source="MzYAZwuP3uAeil5Zmus0-50" target="2" edge="1">
                    <mxGeometry width="50" height="50" relative="1" as="geometry">
                        <mxPoint x="620" y="759" as="sourcePoint"/>
                        <mxPoint x="750" y="759" as="targetPoint"/>
                    </mxGeometry>
                </mxCell>
                <mxCell id="14" value="" style="endArrow=none;html=1;rounded=0;dashed=1;strokeWidth=2;endSize=6;startSize=6;jumpSize=6;strokeColor=#60a5fa;fontFamily=Roboto Mono;fontSource=https%3A%2F%2Ffonts.googleapis.com%2Fcss%3Ffamily%3DRoboto%2BMono;endFill=0;exitX=0;exitY=0.5;exitDx=0;exitDy=0;startArrow=oval;startFill=1;" parent="WIyWlLk6GJQsqaUBKTNV-1" edge="1">
                    <mxGeometry width="50" height="50" relative="1" as="geometry">
                        <mxPoint y="220.83" as="sourcePoint"/>
                        <mxPoint x="100" y="219.9999999999999" as="targetPoint"/>
                    </mxGeometry>
                </mxCell>
                <mxCell id="MzYAZwuP3uAeil5Zmus0-3" value="" style="edgeStyle=orthogonalEdgeStyle;rounded=0;orthogonalLoop=1;jettySize=auto;html=1;strokeWidth=3;endSize=4;endArrow=block;endFill=1;strokeColor=#94a3b8;fontFamily=Roboto Mono;fontSource=https%3A%2F%2Ffonts.googleapis.com%2Fcss%3Ffamily%3DRoboto%2BMono;" parent="WIyWlLk6GJQsqaUBKTNV-1" source="MzYAZwuP3uAeil5Zmus0-0" target="MzYAZwuP3uAeil5Zmus0-2" edge="1">
                    <mxGeometry relative="1" as="geometry"/>
                </mxCell>
                <mxCell id="MzYAZwuP3uAeil5Zmus0-49" value="" style="edgeStyle=orthogonalEdgeStyle;rounded=0;orthogonalLoop=1;jettySize=auto;html=1;entryX=0.5;entryY=0;entryDx=0;entryDy=0;strokeWidth=3;endSize=4;endArrow=block;endFill=1;strokeColor=#94a3b8;fontFamily=Roboto Mono;fontSource=https%3A%2F%2Ffonts.googleapis.com%2Fcss%3Ffamily%3DRoboto%2BMono;" parent="WIyWlLk6GJQsqaUBKTNV-1" target="MzYAZwuP3uAeil5Zmus0-50" edge="1">
                    <mxGeometry relative="1" as="geometry">
                        <mxPoint x="579.6" y="80" as="sourcePoint"/>
                        <mxPoint x="579.6" y="240" as="targetPoint"/>
                    </mxGeometry>
                </mxCell>
                <mxCell id="17" value="Page Events" style="text;html=1;strokeColor=none;fillColor=none;align=center;verticalAlign=middle;whiteSpace=wrap;rounded=0;fontColor=#94a3b8;fontFamily=Roboto Mono;fontSource=https%3A%2F%2Ffonts.googleapis.com%2Fcss%3Ffamily%3DRoboto%2BMono;fontSize=16;" parent="WIyWlLk6GJQsqaUBKTNV-1" vertex="1">
                    <mxGeometry x="285" y="40" width="110" height="30" as="geometry"/>
                </mxCell>
                <mxCell id="MzYAZwuP3uAeil5Zmus0-50" value="&lt;div&gt;previous&lt;/div&gt;&lt;div&gt;Page&lt;/div&gt;" style="ellipse;whiteSpace=wrap;html=1;aspect=fixed;fillColor=#fb7185;strokeColor=none;fontColor=#ffffff;fontFamily=Roboto Mono;fontSource=https%3A%2F%2Ffonts.googleapis.com%2Fcss%3Ffamily%3DRoboto%2BMono;" parent="WIyWlLk6GJQsqaUBKTNV-1" vertex="1">
                    <mxGeometry x="540" y="720" width="80" height="80" as="geometry"/>
                </mxCell>
                <mxCell id="MzYAZwuP3uAeil5Zmus0-17" value="unloaded" style="rounded=1;whiteSpace=wrap;html=1;fillColor=none;strokeColor=#94a3b8;fontColor=#94a3b8;fontFamily=Roboto Mono;fontSource=https%3A%2F%2Ffonts.googleapis.com%2Fcss%3Ffamily%3DRoboto%2BMono;" parent="WIyWlLk6GJQsqaUBKTNV-1" vertex="1">
                    <mxGeometry x="280" y="370" width="120" height="40" as="geometry"/>
                </mxCell>
                <mxCell id="MzYAZwuP3uAeil5Zmus0-32" value="navigatingFrom" style="whiteSpace=wrap;html=1;rounded=1;glass=0;strokeWidth=1;shadow=0;fillColor=none;strokeColor=#38bdf8;fontColor=#38bdf8;fontFamily=Roboto Mono;fontSource=https%3A%2F%2Ffonts.googleapis.com%2Fcss%3Ffamily%3DRoboto%2BMono;" parent="WIyWlLk6GJQsqaUBKTNV-1" vertex="1">
                    <mxGeometry x="280" y="140" width="120" height="40" as="geometry"/>
                </mxCell>
                <mxCell id="MzYAZwuP3uAeil5Zmus0-33" value="navigatingTo" style="whiteSpace=wrap;html=1;rounded=1;glass=0;strokeWidth=1;shadow=0;fillColor=none;strokeColor=#fb7185;fontColor=#fb7185;fontFamily=Roboto Mono;fontSource=https%3A%2F%2Ffonts.googleapis.com%2Fcss%3Ffamily%3DRoboto%2BMono;" parent="WIyWlLk6GJQsqaUBKTNV-1" vertex="1">
                    <mxGeometry x="280" y="200" width="120" height="40" as="geometry"/>
                </mxCell>
                <mxCell id="MzYAZwuP3uAeil5Zmus0-34" value="navigatedFrom" style="whiteSpace=wrap;html=1;rounded=1;glass=0;strokeWidth=1;shadow=0;fillColor=none;strokeColor=#38bdf8;fontColor=#38bdf8;fontFamily=Roboto Mono;fontSource=https%3A%2F%2Ffonts.googleapis.com%2Fcss%3Ffamily%3DRoboto%2BMono;" parent="WIyWlLk6GJQsqaUBKTNV-1" vertex="1">
                    <mxGeometry x="280" y="620" width="120" height="40" as="geometry"/>
                </mxCell>
                <mxCell id="MzYAZwuP3uAeil5Zmus0-35" value="navigatedTo" style="whiteSpace=wrap;html=1;rounded=1;glass=0;strokeWidth=1;shadow=0;fillColor=none;strokeColor=#fb7185;fontColor=#fb7185;fontFamily=Roboto Mono;fontSource=https%3A%2F%2Ffonts.googleapis.com%2Fcss%3Ffamily%3DRoboto%2BMono;" parent="WIyWlLk6GJQsqaUBKTNV-1" vertex="1">
                    <mxGeometry x="280" y="740" width="120" height="40" as="geometry"/>
                </mxCell>
                <mxCell id="MzYAZwuP3uAeil5Zmus0-36" value="loaded" style="whiteSpace=wrap;html=1;rounded=1;glass=0;strokeWidth=1;shadow=0;fillColor=none;strokeColor=#94a3b8;fontColor=#94a3b8;fontFamily=Roboto Mono;fontSource=https%3A%2F%2Ffonts.googleapis.com%2Fcss%3Ffamily%3DRoboto%2BMono;" parent="WIyWlLk6GJQsqaUBKTNV-1" vertex="1">
                    <mxGeometry x="280" y="80" width="120" height="40" as="geometry"/>
                </mxCell>
                <mxCell id="MzYAZwuP3uAeil5Zmus0-56" value="navigatedFrom" style="whiteSpace=wrap;html=1;rounded=1;glass=0;strokeWidth=1;shadow=0;fillColor=none;strokeColor=#38bdf8;fontColor=#38bdf8;fontFamily=Roboto Mono;fontSource=https%3A%2F%2Ffonts.googleapis.com%2Fcss%3Ffamily%3DRoboto%2BMono;" parent="WIyWlLk6GJQsqaUBKTNV-1" vertex="1">
                    <mxGeometry x="280" y="260" width="120" height="40" as="geometry"/>
                </mxCell>
                <mxCell id="0hTGC6HZLtdBihr4BLEF-7" value="unloaded" style="rounded=1;whiteSpace=wrap;html=1;fillColor=none;strokeColor=#94a3b8;fontColor=#94a3b8;fontFamily=Roboto Mono;fontSource=https%3A%2F%2Ffonts.googleapis.com%2Fcss%3Ffamily%3DRoboto%2BMono;" parent="WIyWlLk6GJQsqaUBKTNV-1" vertex="1">
                    <mxGeometry x="280" y="680" width="120" height="40" as="geometry"/>
                </mxCell>
            </root>
        </mxGraphModel>
    </diagram>
</mxfile>